<?xml version="1.0" encoding="UTF-8"?>
<svg id="Layer_1" data-name="Layer 1" xmlns="http://www.w3.org/2000/svg" viewBox="0 0 422.17 100">
  <defs>
    <style>
      .cls-1 {
        fill: #f6f5f1;
      }

      .cls-2 {
        fill: #f42903;
      }

      .cls-3 {
        fill: #f7cd02;
      }

      .cls-4 {
        fill: #f54c01;
      }
    </style>
  </defs>
  <g>
    <path class="cls-3" d="m13.7.31c2.93.2,4.41.38,5.42.78.78.3,1.96.9,3.22,2.14.02.03.04.06.06.1.03.06.06.12.07.16,1.67,4.01,3.34,8.03,5,12.04.03.08.11.27.26.5.43.67,1.05,1.07,1.61,1.32,38.03.62,65.94,1.28,69.4,1.64.76.08,2.44.29,3.58,1.54,1.03,1.13,1.16,2.62,1.24,3.5.19,2.06-.49,3.66-.64,4.03-1.16,2.93-5.57,15.58-11.67,33.04-.13.35-.29.73-.49,1.11-.91,1.7-2.21,2.75-3.14,3.35-20.21-16.07-40.43-32.15-60.64-48.22-3.8.13-7.6.25-11.4.38-.21-.86-.47-1.78-.81-2.74-.4-1.17-.84-2.23-1.28-3.17-.09-.06-.19-.14-.29-.25-.09-.1-.14-.18-.14-.19-.11-.16-3.59-1.5-12.09-4.59-.28-.34-.66-.89-.85-1.66C-.33,3.29.56,1.2,2.02.32,2.52.02,3.84-.02,6.46,0c4.51.05,3.54.05,7.24.3Z"/>
    <path class="cls-4" d="m15.58,17.71c3.8-.13,7.6-.25,11.4-.38,20.21,16.07,40.43,32.15,60.64,48.22-.31.15-.63.3-.94.45-19.31.03-38.61.06-57.92.08-.74-.19-1.82-.58-2.86-1.44-2.49-2.07-2.69-5.16-2.71-5.78-2.54-13.71-5.07-27.42-7.61-41.14Z"/>
    <path class="cls-1" d="m75.88,80.3c3.05.01,6.09.03,9.14.04-3.05-.01-6.09-.03-9.14-.04Z"/>
    <path class="cls-1" d="m14.28,13.49c.16.5.33.99.49,1.49-.16-.5-.33-.99-.49-1.49Z"/>
    <path class="cls-1" d="m12.91,11.3c.19.17.39.33.58.5-.19-.17-.39-.33-.58-.5Z"/>
    <path class="cls-1" d="m91.18,61.31c.06-.13.12-.25.17-.38-.06.13-.12.25-.17.38Z"/>
    <path class="cls-3" d="m83.49,88.83s.01,0,.01,0c0,0-.01,0-.01,0Z"/>
    <path class="cls-1" d="m83.51,94.2c.11-.12.22-.23.32-.35-.11.12-.22.23-.32.35Z"/>
    <path class="cls-1" d="m29.96,97.37c.14.13.27.26.41.39-.14-.13-.27-.26-.41-.39Z"/>
    <path class="cls-1" d="m30.75,97.86c.14.1.28.19.42.29-.14-.1-.28-.19-.42-.29Z"/>
    <path class="cls-4" d="m85.02,80.22H29.13c-1.73-.64-2.89-2.31-2.88-4.15,0-1.84,1.16-3.5,2.88-4.14h55.89c1.75.56,2.96,2.14,3.06,3.92.1,1.94-1.15,3.75-3.06,4.37Z"/>
    <circle class="cls-4" cx="35.37" cy="91.97" r="8.03"/>
    <circle class="cls-4" cx="75.88" cy="91.97" r="8.03"/>
  </g>
  <g>
    <path class="cls-2" d="m384.26,44.09c.83-.7,2.77-2.14,5.67-2.61,1.15-.19,3.73-.44,6.57.81,1.79.79,3,1.87,3.69,2.59.04.05.61.66,1.46.54.8-.11,1.17-.77,1.21-.85.34-.42.86-1,1.61-1.54,2.07-1.5,4.28-1.57,6.01-1.65,2.85-.14,5.36.3,7.41,1.69.28.19,1.7,1.22,2.86,3.11.76,1.24,1.14,2.4,1.33,3.2.03,6.58.07,13.16.1,19.74-.32,1.96-2.01,3.43-4,3.48-1.97.04-3.72-1.33-4.14-3.26.3-6.45.12-11.23-.08-14.2-.1-1.58-.28-3.79-1.88-5.03-1.49-1.15-3.61-.99-4.05-.95-.75.06-1.77.14-2.71.85-1.6,1.22-1.68,3.28-1.68,3.63-.02,4.81-.04,9.61-.06,14.42.05,2.75-2.29,4.84-4.69,4.63-2.12-.19-3.92-2.13-3.91-4.53-.09-7-.26-12.29-.39-14.68-.02-.34-.08-1.15-.57-2-.77-1.36-2.22-2.23-3.87-2.31-2.81-.14-4.76,1.14-5.01,3.89-.33,3.72-.22,7.48-.29,11.23.4,4.43-.86,9.56-6.43,8.13-.62-.18-1.11-.46-1.48-.82-1.06-1.03-1.12-2.58-1.13-3.32-.04-2.28-.12-10.36-.05-21.41-.03-2,.89-3.8,2.43-4.58,1.21-.61,2.43-.41,2.83-.33,1.94.36,3,1.78,3.25,2.12Z"/>
    <path class="cls-2" d="m128.4,44.17c13.53-10.93,28,6.18,21.88,20.08-2.04,5.56-8.23,9.55-14.33,8.88-2.06-.23-4.01-1.23-6.06-1.67-.81-.17-2.03-.09-2.57.41-1.7,1.56-3.53,1.49-5.35.67-1.87-.84-2.34-2.41-2.31-4.55.14-11.19.06-22.39.06-33.58-.13-3.24-.09-8.11,4.07-7.91,2.73-.08,4.28,1.12,4.48,4.1.28,4.61.08,8.88.13,13.56Zm14.48,13.13c-.4-10.96-13.79-10.67-14.5.01-.07,10.44,14.46,10.66,14.5-.01Z"/>
    <path class="cls-2" d="m174.49,41.57c1.2.25,2.31.56,3.3.89,1.84-1.08,5.52-.82,6.58.93.6,1,.75,2.38.77,3.6,0,.23.06,6.15.22,17.99.05,3.83.26,6.14-1.27,7.21-1.34.94-3.39.48-3.59.44-1.76-.42-2.74-1.62-3.01-1.97-.89.35-2.12.75-3.62,1.02-1.5.27-13.53,2.2-19.06-6.54-4.16-6.57-2.33-15.53,2.63-20.08,3.56-3.27,8.46-4.02,10.57-4.1,2.14-.08,5.32.38,6.48.62Zm-6.01,23.26c10.16.79,10.93-15.86.82-15.75-4.43-.1-7.53,3.19-7.57,7.92-.04,4.85,2.31,8.47,6.75,7.83Z"/>
    <path class="cls-2" d="m372.47,57.24c.04,1.16.08,6.57-4.05,11.12-4.64,5.11-10.9,5.13-12.07,5.11-5.36-.09-10.36-2.89-13.15-7.16-2.39-3.66-2.5-7.39-2.52-8.93-.02-1.45-.03-4.99,2.05-8.65,2.44-4.27,7.23-7.8,13.06-8.1,6.45-.33,10.77,3.48,11.48,4.14,5.34,4.88,5.23,11.5,5.2,12.46Zm-15.46,8.14c4.3-.15,7.81-4.3,7.39-8.69-.37-3.78-3.59-7.11-7.65-7.12-3.95-.02-7.1,3.11-7.65,6.6-.71,4.59,3.15,9.38,7.91,9.21Z"/>
    <path class="cls-2" d="m228.23,57.77c-.11-1.16-.43-6.03,2.96-10.46,3.21-4.2,7.62-5.22,9.37-5.59,7.92-1.7,13.83,2.98,14.68,4.1.57.76.58,1.5.58,1.5,0,.54-.2,1.05-.68,1.66-2.28,2.84-4.55,3.63-6.6,2-7.55-5.59-16.07,5.03-9.66,11.69,1.71,1.78,4.56,2.62,4.87,2.65,3.01.3,5.64-1.49,6.13-1.83,1.18-.81,1.4-1.34,2.17-1.41,1.44-.14,3.46,1.74,4.2,3.79.03.09.06.18.08.23,0,.07.02.16.02.28.05,2.69-3.97,4.74-5.16,5.36-3.68,1.93-7.22,1.79-8.24,1.75-6.1-.24-9.95-4.08-10.57-4.74-4.27-4.51-4.17-9.97-4.13-10.97Z"/>
    <path class="cls-2" d="m199.61,40.8c.39-.03,6.24-.38,10.47,3.36,1.76,1.56,1.69,2.48,1.67,2.77-.03.67-.74,1.23-2.02,2.34-1.16,1.01-1.74,1.51-2.08,1.6-1.98.5-3.03-2.38-6.06-2.62-.21-.02-2.59-.18-3.4,1.23-.52.9-.22,2.15.32,2.95,1.02,1.52,2.78,1.68,5.09,1.98,6.31.83,10.52,6.56,8.71,12.68-.74,2.52-2.67,3.81-3.49,4.39-2.92,2.08-6.07,2-7.14,1.92-3.05,0-5.42-.6-6.95-1.12-2.41-.81-5.43-1.83-5.76-3.92-.22-1.39.84-2.76.94-2.89.24-.31.9-1.14,1.96-1.34.96-.19,1.75.23,2.39.55,3.19,1.58,5.04,2.49,6.76,2.14,1.09-.23,2.38-1.01,2.55-2.09.14-.9-.53-1.92-1.06-2.46-.26-.26-.48-.43-.58-.48-1.71-.88-3.72-1.15-5.49-1.94-6.69-2.97-7.79-5.38-7.16-11.42.44-4.27,4.64-6,5.42-6.41,1.94-1,3.66-1.15,4.92-1.25Z"/>
    <path class="cls-2" d="m308.05,58.81c.58-.67.49-1.62.45-2.06-1.07-10.59-7.96-14.35-7.97-14.35-4.41-2.4-10-2.54-14.56-.04-5.46,3-7.01,8.44-7.45,9.98-.36,1.27-1.75,6.7,1.07,12.37.56,1.13,2.19,4.31,5.84,6.53,3.33,2.03,6.53,2.16,8.67,2.24,1.6.06,3.77.14,6.34-.82,1.5-.56,3.13-1.46,4.7-2.86,2.24-2,3.05-2.52.35-5.02-.7-.66-1.6-1.44-2.76-1.48-1.17-.05-1.87.7-2.73,1.23-2.79,1.73-7.22,1.13-9.96-.87-.71-.52-2.2-1.78-3.13-4.29,9.31.14,16.24.18,18.82.2.48,0,1.65.01,2.31-.75Zm-8.04-5.27c-.08.07-.21.16-.43.21-4.26,0-8.52.02-12.79.03.1-.46.85-3.79,3.75-5.16,3.06-1.45,7.31-.15,9.68,3.46.22.58.13,1.17-.21,1.47Z"/>
    <path class="cls-2" d="m224.85,69.3c-.46,1.97-2.16,3.4-4.11,3.5-2.11.11-4.07-1.36-4.57-3.5v-25.18c.06-.11,1.36-2.52,4.07-2.67,1.9-.11,3.71.94,4.62,2.67v25.18Z"/>
    <circle class="cls-2" cx="220.51" cy="33.28" r="4.95"/>
    <path class="cls-2" d="m272.98,60.78h-12.82c-1.38-.65-2.25-2.05-2.22-3.57.03-1.45.89-2.78,2.22-3.4h12.82c1.28.64,2.11,1.91,2.17,3.32.07,1.52-.79,2.96-2.17,3.65Z"/>
    <path class="cls-2" d="m311.17,57.77c-.11-1.16-.43-6.03,2.96-10.46,3.21-4.2,7.62-5.22,9.37-5.59,7.92-1.7,13.83,2.98,14.68,4.1.57.76.58,1.5.58,1.5,0,.54-.2,1.05-.68,1.66-2.28,2.84-4.55,3.63-6.6,2-7.55-5.59-16.07,5.03-9.66,11.69,1.71,1.78,4.56,2.62,4.87,2.65,3.01.3,5.64-1.49,6.13-1.83,1.18-.81,1.4-1.34,2.17-1.41,1.44-.14,3.46,1.74,4.2,3.79.03.09.06.18.08.23,0,.07.02.16.02.28.05,2.69-3.97,4.74-5.16,5.36-3.68,1.93-7.22,1.79-8.24,1.75-6.1-.24-9.95-4.08-10.57-4.74-4.27-4.51-4.17-9.97-4.13-10.97Z"/>
  </g>
</svg>