<?xml version="1.0" encoding="UTF-8"?>
<svg id="Layer_1" data-name="Layer 1" xmlns="http://www.w3.org/2000/svg" viewBox="0 0 103.59 100">
  <defs>
    <style>
      .cls-1 {
        fill: #f6f5f1;
      }

      .cls-2 {
        fill: #f7cd02;
      }

      .cls-3 {
        fill: #f54c01;
      }
    </style>
  </defs>
  <path class="cls-1" d="m21.4,35.58c-.1.04-.21.13-.28.1-.07-.03-.08-.18-.12-.27.1-.04.21-.13.28-.1.07.03.08.18.12.27Z"/>
  <g>
    <path class="cls-2" d="m13.7.31c2.93.2,4.41.38,5.42.78.78.3,1.96.9,3.22,2.14.02.03.04.06.06.1.03.06.06.12.07.16,1.67,4.01,3.34,8.03,5,12.04.03.08.11.27.26.5.43.67,1.05,1.07,1.61,1.32,38.03.62,65.94,1.28,69.4,1.64.76.08,2.44.29,3.58,1.54,1.03,1.13,1.16,2.62,1.24,3.5.19,2.06-.49,3.66-.64,4.03-1.16,2.93-5.57,15.58-11.67,33.04-.13.35-.29.73-.49,1.11-.91,1.7-2.21,2.75-3.14,3.35-20.21-16.07-40.43-32.15-60.64-48.22-3.8.13-7.6.25-11.4.38-.21-.86-.47-1.78-.81-2.74-.4-1.17-.84-2.23-1.28-3.17-.09-.06-.19-.14-.29-.25-.09-.1-.14-.18-.14-.19-.11-.16-3.59-1.5-12.09-4.59-.28-.34-.66-.89-.85-1.66C-.33,3.29.56,1.2,2.02.32,2.52.02,3.84-.02,6.46,0c4.51.05,3.54.05,7.24.3Z"/>
    <path class="cls-3" d="m15.58,17.71c3.8-.13,7.6-.25,11.4-.38,20.21,16.07,40.43,32.15,60.64,48.22-.31.15-.63.3-.94.45-19.31.03-38.61.06-57.92.08-.74-.19-1.82-.58-2.86-1.44-2.49-2.07-2.69-5.16-2.71-5.78-2.54-13.71-5.07-27.42-7.61-41.14Z"/>
    <path class="cls-1" d="m75.88,80.3c3.05.01,6.09.03,9.14.04-3.05-.01-6.09-.03-9.14-.04Z"/>
    <path class="cls-1" d="m14.28,13.49c.16.5.33.99.49,1.49-.16-.5-.33-.99-.49-1.49Z"/>
    <path class="cls-1" d="m12.91,11.3c.19.17.39.33.58.5-.19-.17-.39-.33-.58-.5Z"/>
    <path class="cls-1" d="m91.18,61.31c.06-.13.12-.25.17-.38-.06.13-.12.25-.17.38Z"/>
    <path class="cls-2" d="m83.49,88.83s.01,0,.01,0c0,0-.01,0-.01,0Z"/>
    <path class="cls-1" d="m83.51,94.2c.11-.12.22-.23.32-.35-.11.12-.22.23-.32.35Z"/>
    <path class="cls-1" d="m29.96,97.37c.14.13.27.26.41.39-.14-.13-.27-.26-.41-.39Z"/>
    <path class="cls-1" d="m30.75,97.86c.14.1.28.19.42.29-.14-.1-.28-.19-.42-.29Z"/>
    <path class="cls-3" d="m85.02,80.22H29.13c-1.73-.64-2.89-2.31-2.88-4.15,0-1.84,1.16-3.5,2.88-4.14h55.89c1.75.56,2.96,2.14,3.06,3.92.1,1.94-1.15,3.75-3.06,4.37Z"/>
    <circle class="cls-3" cx="35.37" cy="91.97" r="8.03"/>
    <circle class="cls-3" cx="75.88" cy="91.97" r="8.03"/>
  </g>
</svg>